<?xml version="1.0" encoding="UTF-8" standalone="no"?>
<!-- Created with Inkscape (http://www.inkscape.org/) -->
<svg xmlns:dc="http://purl.org/dc/elements/1.1/" xmlns:cc="http://web.resource.org/cc/" xmlns:rdf="http://www.w3.org/1999/02/22-rdf-syntax-ns#" xmlns:svg="http://www.w3.org/2000/svg" xmlns="http://www.w3.org/2000/svg" xmlns:sodipodi="http://sodipodi.sourceforge.net/DTD/sodipodi-0.dtd" xmlns:inkscape="http://www.inkscape.org/namespaces/inkscape" width="524.40942" height="744.09448" id="svg2" sodipodi:version="0.32" inkscape:version="0.44.1" sodipodi:docbase="C:\Temp" sodipodi:docname="arking_tortoise.svg" version="1.0">
  <defs id="defs4"/>
  <sodipodi:namedview id="base" pagecolor="#ffffff" bordercolor="#666666" borderopacity="1.0" inkscape:pageopacity="0.0" inkscape:pageshadow="2" inkscape:zoom="0.35919193" inkscape:cx="372.04724" inkscape:cy="526.18109" inkscape:document-units="px" inkscape:current-layer="layer1" inkscape:window-width="925" inkscape:window-height="573" inkscape:window-x="193" inkscape:window-y="56" width="524.40945px" height="744.09449px"/>
  <metadata id="metadata7">
    <rdf:RDF>
      <cc:Work rdf:about="">
        <dc:format>image/svg+xml</dc:format>
        <dc:type rdf:resource="http://purl.org/dc/dcmitype/StillImage"/>
        <dc:title>tortoise</dc:title>
        <dc:date>10.10.2009</dc:date>
        <dc:creator>
          <cc:Agent>
            <dc:title>arking</dc:title>
          </cc:Agent>
        </dc:creator>
        <dc:subject>
          <rdf:Bag>
            <rdf:li>tortoise</rdf:li>
            <rdf:li>turtle</rdf:li>
            <rdf:li>green</rdf:li>
          </rdf:Bag>
        </dc:subject>
        <dc:description>Green Tortoise</dc:description>
      </cc:Work>
    </rdf:RDF>
  </metadata>
  <g inkscape:label="Ebene 1" inkscape:groupmode="layer" id="layer1">
    <path style="fill: rgb(169, 169, 169); fill-rule: evenodd; stroke: none; stroke-width: 0.1; stroke-linecap: butt; stroke-linejoin: miter; stroke-opacity: 1;" d="M 237.00586,192.11119 C 216.56796,191.99607 194.20446,210.60651 216.47456,221.76744 C 235.43916,231.27184 263.93386,197.25732 243.22456,192.76744 C 241.20266,192.32526 239.12006,192.1231 237.00586,192.11119 z M 315.44341,197.36119 C 224.48576,197.11755 144.98105,299.14741 171.22456,295.36119 C 247.86696,287.95797 311.22391,328.31366 282.06841,408.82994 C 282.06831,408.82994 398.17391,458.96916 443.03711,379.79869 C 443.03711,379.79869 500.32091,211.78416 324.28711,197.70494 C 321.33231,197.47726 318.37751,197.36905 315.44341,197.36119 z M 150.94331,234.57994 C 126.14114,235.39474 108.85957,279.51744 140.34956,279.51744 C 165.43566,279.51743 222.74706,240.33152 153.38086,234.64244 C 152.5665,234.57565 151.74338,234.55366 150.94331,234.57994 z M 465.94341,310.92369 C 463.80171,311.0234 461.59511,312.19884 459.50591,314.76744 C 445.54441,331.86911 451.18851,368.08236 473.28711,351.73619 C 487.67691,341.09227 477.50841,310.38526 465.94341,310.92369 z M 194.34956,314.07994 C 157.64246,313.75033 111.20553,331.79984 93.037062,348.76744 C 61.608502,388.76745 74.079182,452.17345 98.755812,457.32994 C 100.71277,457.85444 102.63227,458.33475 104.53706,458.79869 L 102.50581,459.20494 C 112.96672,492.43379 241.30036,468.79914 222.22456,434.95494 L 218.44336,435.70494 C 245.95426,403.93492 244.47456,357.32994 244.47456,357.32994 C 245.57176,325.70678 222.89956,314.3363 194.34956,314.07994 z M 449.16211,395.11119 C 443.09161,394.82579 434.44331,400.57244 422.66211,416.20494 C 406.92641,437.08475 436.22311,478.67651 453.59961,451.20494 C 463.23811,435.96677 464.67561,395.84054 449.16211,395.11119 z " id="path5581"/>
    <path style="fill: rgb(154, 205, 50); fill-rule: evenodd; stroke: black; stroke-width: 3; stroke-linecap: butt; stroke-linejoin: miter; stroke-opacity: 1;" d="M 89.775542,329.40739 C 58.346972,369.40739 70.813202,432.82233 95.489832,437.97882 C 245.71986,478.2434 241.20412,337.97882 241.20412,337.97882 C 243.71211,265.69729 122.07504,299.24277 89.775542,329.40739 z " id="path2849" sodipodi:nodetypes="cccc"/>
    <path style="fill: none; fill-rule: evenodd; stroke: black; stroke-width: 3; stroke-linecap: butt; stroke-linejoin: miter; stroke-opacity: 1;" d="M 117.16599,346.70862 C 50.240142,351.3972 85.535612,441.52694 118.72206,408.34049 C 133.47671,388.17667 146.75242,349.18522 117.16599,346.70862 z " id="path2851" sodipodi:nodetypes="ccc"/>
    <path sodipodi:type="arc" style="opacity: 1; fill: black; fill-opacity: 1; stroke: black; stroke-width: 3; stroke-linecap: round; stroke-linejoin: round; stroke-miterlimit: 4; stroke-dasharray: none; stroke-dashoffset: 0pt; stroke-opacity: 1;" id="path2855" sodipodi:cx="225.69023" sodipodi:cy="550.7074" sodipodi:rx="11.97007" sodipodi:ry="11.97007" d="M 237.6603 550.7074 A 11.97007 11.97007 0 1 1  213.72016,550.7074 A 11.97007 11.97007 0 1 1  237.6603 550.7074 z" transform="translate(-131.466, -158.427)"/>
    <path style="fill: rgb(154, 205, 50); fill-rule: evenodd; stroke: black; stroke-width: 3; stroke-linecap: butt; stroke-linejoin: miter; stroke-opacity: 1;" d="M 167.93956,275.99794 C 140.84951,279.90631 226.45,171.06865 321.00248,178.35435 C 497.03632,192.43356 439.75819,360.44644 439.75819,360.44644 C 394.89492,439.61691 278.77823,389.47562 278.77823,389.47562 C 307.93383,308.95934 244.58192,268.59472 167.93956,275.99794 z " id="path5514" sodipodi:nodetypes="ccccc"/>
    <path style="fill: rgb(154, 205, 50); fill-rule: evenodd; stroke: black; stroke-width: 3; stroke-linecap: butt; stroke-linejoin: miter; stroke-opacity: 1;" d="M 150.09998,215.28382 C 124.0421,213.14669 104.56524,260.16366 137.07104,260.16366 C 162.15711,260.16366 219.46628,220.9729 150.09998,215.28382 z " id="path5520" sodipodi:nodetypes="csc"/>
    <path style="fill: rgb(154, 205, 50); fill-rule: evenodd; stroke: black; stroke-width: 3; stroke-linecap: butt; stroke-linejoin: miter; stroke-opacity: 1;" d="M 419.37473,396.86234 C 403.63895,417.74215 432.96265,459.33624 450.33913,431.86467 C 463.74927,410.66373 461.26355,341.28012 419.37473,396.86234 z " id="path5522" sodipodi:nodetypes="csc"/>
    <path style="fill: rgb(154, 205, 50); fill-rule: evenodd; stroke: black; stroke-width: 3; stroke-linecap: butt; stroke-linejoin: miter; stroke-opacity: 1;" d="M 456.23543,295.41651 C 442.27392,312.51821 447.91444,348.73584 470.0131,332.38967 C 487.06756,319.77466 469.60673,278.97745 456.23543,295.41651 z " id="path5524" sodipodi:nodetypes="csc"/>
    <path style="fill: rgb(154, 205, 50); fill-rule: evenodd; stroke: black; stroke-width: 3; stroke-linecap: butt; stroke-linejoin: miter; stroke-opacity: 1;" d="M 239.95568,173.40992 C 218.38843,168.69337 188.63851,190.10539 213.21241,202.4209 C 232.1771,211.9253 260.66499,177.8998 239.95568,173.40992 z " id="path5526" sodipodi:nodetypes="csc"/>
    <path style="fill: none; fill-rule: evenodd; stroke: black; stroke-width: 3; stroke-linecap: butt; stroke-linejoin: miter; stroke-opacity: 1;" d="M 174.39708,366.4234 C 107.47123,371.11198 142.7667,461.24172 175.95315,428.05527 C 190.7078,407.89145 203.98351,368.9 174.39708,366.4234 z " id="path5543" sodipodi:nodetypes="ccc"/>
    <path sodipodi:type="arc" style="opacity: 1; fill: black; fill-opacity: 1; stroke: black; stroke-width: 3; stroke-linecap: round; stroke-linejoin: round; stroke-miterlimit: 4; stroke-dasharray: none; stroke-dashoffset: 0pt; stroke-opacity: 1;" id="path5545" sodipodi:cx="225.69023" sodipodi:cy="550.7074" sodipodi:rx="11.97007" sodipodi:ry="11.97007" d="M 237.6603 550.7074 A 11.97007 11.97007 0 1 1  213.72016,550.7074 A 11.97007 11.97007 0 1 1  237.6603 550.7074 z" transform="translate(-74.2345, -138.712)"/>
    <path style="fill: none; fill-rule: evenodd; stroke: black; stroke-width: 3; stroke-linecap: butt; stroke-linejoin: miter; stroke-opacity: 1;" d="M 99.227162,439.84634 C 109.6881,473.0752 238.01615,449.42913 218.94032,415.58493" id="path5547" sodipodi:nodetypes="cc"/>
    <path style="fill: rgb(154, 205, 50); fill-rule: evenodd; stroke: black; stroke-width: 3; stroke-linecap: butt; stroke-linejoin: miter; stroke-opacity: 1;" d="M 200.65154,256.71392 C 179.85364,259.71206 253.92396,176.22171 326.51492,181.81064 C 461.66174,192.61093 439.95969,302.00693 426.03956,335.41525 C 399.18597,399.86387 305.23413,377.17199 305.23413,377.17199 C 327.61781,315.40722 259.49234,251.03484 200.65154,256.71392 z " id="path5549" sodipodi:nodetypes="ccccc"/>
    <path style="fill: rgb(154, 205, 50); fill-rule: evenodd; stroke: black; stroke-width: 3; stroke-linecap: butt; stroke-linejoin: miter; stroke-opacity: 1;" d="M 243.63489,240.46411 C 230.00374,242.4255 292.56431,182.23768 340.14112,185.89399 C 428.71767,192.95958 405.46455,293.98038 405.46455,293.98038 C 382.8903,333.71178 330.03088,336.38882 330.03088,336.38882 C 344.70137,295.98203 282.19972,236.74883 243.63489,240.46411 z " id="path5551" sodipodi:nodetypes="ccccc"/>
  </g>
</svg>