<?xml version="1.0" encoding="UTF-8" standalone="no"?>
<!-- Created with Inkscape (http://www.inkscape.org/) -->
<svg
   xmlns:dc="http://purl.org/dc/elements/1.1/"
   xmlns:cc="http://creativecommons.org/ns#"
   xmlns:rdf="http://www.w3.org/1999/02/22-rdf-syntax-ns#"
   xmlns:svg="http://www.w3.org/2000/svg"
   xmlns="http://www.w3.org/2000/svg"
   xmlns:sodipodi="http://sodipodi.sourceforge.net/DTD/sodipodi-0.dtd"
   xmlns:inkscape="http://www.inkscape.org/namespaces/inkscape"
   width="524.40942"
   height="744.09448"
   id="svg2"
   sodipodi:version="0.32"
   inkscape:version="0.46"
   sodipodi:docbase="C:\Temp"
   sodipodi:docname="baitu.svg"
   version="1.0"
   inkscape:output_extension="org.inkscape.output.svg.inkscape"
   style="display:inline">
  <defs
     id="defs4">
    <inkscape:perspective
       sodipodi:type="inkscape:persp3d"
       inkscape:vp_x="0 : 372.04724 : 1"
       inkscape:vp_y="0 : 1000 : 0"
       inkscape:vp_z="524.40942 : 372.04724 : 1"
       inkscape:persp3d-origin="262.20471 : 248.03149 : 1"
       id="perspective21" />
  </defs>
  <sodipodi:namedview
     id="base"
     pagecolor="#ffffff"
     bordercolor="#666666"
     borderopacity="1.0"
     inkscape:pageopacity="0.0"
     inkscape:pageshadow="2"
     inkscape:zoom="0.5"
     inkscape:cx="328.776"
     inkscape:cy="271.02863"
     inkscape:document-units="px"
     inkscape:current-layer="layer1"
     inkscape:window-width="1014"
     inkscape:window-height="715"
     inkscape:window-x="0"
     inkscape:window-y="24"
     width="524.40945px"
     height="744.09449px"
     showgrid="false" />
  <metadata
     id="metadata7">
    <rdf:RDF>
      <cc:Work
         rdf:about="">
        <dc:format>image/svg+xml</dc:format>
        <dc:type
           rdf:resource="http://purl.org/dc/dcmitype/StillImage" />
        <dc:title>tortoise</dc:title>
        <dc:date>10.10.2009</dc:date>
        <dc:creator>
          <cc:Agent>
            <dc:title>arking</dc:title>
          </cc:Agent>
        </dc:creator>
        <dc:subject>
          <rdf:Bag>
            <rdf:li>tortoise</rdf:li>
            <rdf:li>turtle</rdf:li>
            <rdf:li>green</rdf:li>
          </rdf:Bag>
        </dc:subject>
        <dc:description>Green Tortoise</dc:description>
      </cc:Work>
    </rdf:RDF>
  </metadata>
  <g
     inkscape:label="Ebene 1"
     inkscape:groupmode="layer"
     id="layer1"
     style="display:inline">
    <path
       style="fill:#a9a9a9;fill-rule:evenodd;stroke:none;stroke-width:0.1;stroke-linecap:butt;stroke-linejoin:miter;stroke-opacity:1;display:inline"
       d="M 237.00586,192.11119 C 216.56796,191.99607 194.20446,210.60651 216.47456,221.76744 C 235.43916,231.27184 263.93386,197.25732 243.22456,192.76744 C 241.20266,192.32526 239.12006,192.1231 237.00586,192.11119 z M 315.44341,197.36119 C 224.48576,197.11755 144.98105,299.14741 171.22456,295.36119 C 247.86696,287.95797 311.22391,328.31366 282.06841,408.82994 C 282.06831,408.82994 398.17391,458.96916 443.03711,379.79869 C 443.03711,379.79869 500.32091,211.78416 324.28711,197.70494 C 321.33231,197.47726 318.37751,197.36905 315.44341,197.36119 z M 150.94331,234.57994 C 126.14114,235.39474 108.85957,279.51744 140.34956,279.51744 C 165.43566,279.51743 222.74706,240.33152 153.38086,234.64244 C 152.5665,234.57565 151.74338,234.55366 150.94331,234.57994 z M 465.94341,310.92369 C 463.80171,311.0234 461.59511,312.19884 459.50591,314.76744 C 445.54441,331.86911 451.18851,368.08236 473.28711,351.73619 C 487.67691,341.09227 477.50841,310.38526 465.94341,310.92369 z M 194.34956,314.07994 C 157.64246,313.75033 111.20553,331.79984 93.037062,348.76744 C 61.608502,388.76745 74.079182,452.17345 98.755812,457.32994 C 100.71277,457.85444 102.63227,458.33475 104.53706,458.79869 L 102.50581,459.20494 C 112.96672,492.43379 241.30036,468.79914 222.22456,434.95494 L 218.44336,435.70494 C 245.95426,403.93492 244.47456,357.32994 244.47456,357.32994 C 245.57176,325.70678 222.89956,314.3363 194.34956,314.07994 z M 449.16211,395.11119 C 443.09161,394.82579 434.44331,400.57244 422.66211,416.20494 C 406.92641,437.08475 436.22311,478.67651 453.59961,451.20494 C 463.23811,435.96677 464.67561,395.84054 449.16211,395.11119 z"
       id="path5581" />
    <path
       style="fill:#9acd32;fill-rule:evenodd;stroke:#000000;stroke-width:3;stroke-linecap:butt;stroke-linejoin:miter;stroke-opacity:1;display:inline"
       d="M 89.775542,329.40739 C 58.346972,369.40739 70.813202,432.82233 95.489832,437.97882 C 245.71986,478.2434 241.20412,337.97882 241.20412,337.97882 C 243.71211,265.69729 122.07504,299.24277 89.775542,329.40739 z"
       id="path2849"
       sodipodi:nodetypes="cccc" />
    <path
       style="fill:#9acd32;fill-rule:evenodd;stroke:#000000;stroke-width:3;stroke-linecap:butt;stroke-linejoin:miter;stroke-opacity:1;display:inline"
       d="M 167.93956,275.99794 C 140.84951,279.90631 226.45,171.06865 321.00248,178.35435 C 497.03632,192.43356 439.75819,360.44644 439.75819,360.44644 C 394.89492,439.61691 278.77823,389.47562 278.77823,389.47562 C 307.93383,308.95934 244.58192,268.59472 167.93956,275.99794 z"
       id="path5514"
       sodipodi:nodetypes="ccccc" />
    <path
       style="fill:#9acd32;fill-rule:evenodd;stroke:#000000;stroke-width:3;stroke-linecap:butt;stroke-linejoin:miter;stroke-opacity:1;display:inline"
       d="M 150.09998,215.28382 C 124.0421,213.14669 104.56524,260.16366 137.07104,260.16366 C 162.15711,260.16366 219.46628,220.9729 150.09998,215.28382 z"
       id="path5520"
       sodipodi:nodetypes="csc" />
    <path
       style="fill:#9acd32;fill-rule:evenodd;stroke:#000000;stroke-width:3;stroke-linecap:butt;stroke-linejoin:miter;stroke-opacity:1;display:inline"
       d="M 419.37473,396.86234 C 403.63895,417.74215 432.96265,459.33624 450.33913,431.86467 C 463.74927,410.66373 461.26355,341.28012 419.37473,396.86234 z"
       id="path5522"
       sodipodi:nodetypes="csc" />
    <path
       style="fill:#9acd32;fill-rule:evenodd;stroke:#000000;stroke-width:3;stroke-linecap:butt;stroke-linejoin:miter;stroke-opacity:1;display:inline"
       d="M 456.23543,295.41651 C 442.27392,312.51821 447.91444,348.73584 470.0131,332.38967 C 487.06756,319.77466 469.60673,278.97745 456.23543,295.41651 z"
       id="path5524"
       sodipodi:nodetypes="csc" />
    <path
       style="fill:#9acd32;fill-rule:evenodd;stroke:#000000;stroke-width:3;stroke-linecap:butt;stroke-linejoin:miter;stroke-opacity:1;display:inline"
       d="M 239.95568,173.40992 C 218.38843,168.69337 188.63851,190.10539 213.21241,202.4209 C 232.1771,211.9253 260.66499,177.8998 239.95568,173.40992 z"
       id="path5526"
       sodipodi:nodetypes="csc" />
    <path
       style="fill:none;fill-rule:evenodd;stroke:#000000;stroke-width:3;stroke-linecap:butt;stroke-linejoin:miter;stroke-opacity:1;display:inline"
       d="M 99.227162,439.84634 C 109.6881,473.0752 238.01615,449.42913 218.94032,415.58493"
       id="path5547"
       sodipodi:nodetypes="cc" />
    <path
       style="fill:#9acd32;fill-rule:evenodd;stroke:#000000;stroke-width:3;stroke-linecap:butt;stroke-linejoin:miter;stroke-opacity:1;display:inline"
       d="M 200.65154,256.71392 C 179.85364,259.71206 253.92396,176.22171 326.51492,181.81064 C 461.66174,192.61093 439.95969,302.00693 426.03956,335.41525 C 399.18597,399.86387 305.23413,377.17199 305.23413,377.17199 C 327.61781,315.40722 259.49234,251.03484 200.65154,256.71392 z"
       id="path5549"
       sodipodi:nodetypes="ccccc" />
    <path
       style="fill:#9acd32;fill-rule:evenodd;stroke:#000000;stroke-width:3;stroke-linecap:butt;stroke-linejoin:miter;stroke-opacity:1;display:inline"
       d="M 243.63489,240.46411 C 230.00374,242.4255 292.56431,182.23768 340.14112,185.89399 C 428.71767,192.95958 405.46455,293.98038 405.46455,293.98038 C 382.8903,333.71178 330.03088,336.38882 330.03088,336.38882 C 344.70137,295.98203 282.19972,236.74883 243.63489,240.46411 z"
       id="path5551"
       sodipodi:nodetypes="ccccc" />
    <path
       style="opacity:1;fill:none;fill-rule:evenodd;stroke:#000000;stroke-width:3;stroke-linecap:round;stroke-linejoin:round;stroke-opacity:1"
       d="M 106.20583,365.0934 C 51.300802,364.83223 91.192466,427.38481 113.0652,407.63339 C 127.81985,415.04673 119.52881,377.11594 106.20583,365.0934 z"
       id="path2851"
       sodipodi:nodetypes="ccc" />
    <path
       sodipodi:type="arc"
       style="opacity:1;fill:#000000;fill-opacity:1;stroke:#000000;stroke-width:3;stroke-linecap:round;stroke-linejoin:round;stroke-miterlimit:4;stroke-dasharray:none;stroke-dashoffset:0;stroke-opacity:1"
       id="path2855"
       sodipodi:cx="225.69023"
       sodipodi:cy="550.7074"
       sodipodi:rx="11.97007"
       sodipodi:ry="11.97007"
       d="M 237.6603,550.7074 A 11.97007,11.97007 0 1 1 230.91987,539.94016 L 225.69023,550.7074 z"
       transform="matrix(0.8750408,0.1908753,0.1088008,0.9363509,-158.05756,-164.16697)"
       sodipodi:start="0"
       sodipodi:end="5.1645308" />
    <path
       style="opacity:1;fill:none;fill-rule:evenodd;stroke:#000000;stroke-width:3;stroke-linecap:round;stroke-linejoin:round;stroke-opacity:1"
       d="M 166.219,408.18381 C 155.06858,414.18424 142.07465,415.78849 133.80496,415.96651 C 147.66765,424.26895 155.70589,433.6864 172.29912,417.09317 C 184.54849,402.48721 177.53581,410.77085 194.58705,390.60663 C 178.30383,397.3429 183.31451,398.98411 166.219,408.18381 z"
       id="path5543"
       sodipodi:nodetypes="ccccs" />
    <path
       sodipodi:type="arc"
       style="opacity:1;fill:#000000;fill-opacity:1;stroke:#000000;stroke-width:3;stroke-linecap:round;stroke-linejoin:round;stroke-miterlimit:4;stroke-dasharray:none;stroke-dashoffset:0;stroke-opacity:1"
       id="path5545"
       sodipodi:cx="225.69023"
       sodipodi:cy="550.7074"
       sodipodi:rx="11.97007"
       sodipodi:ry="11.97007"
       d="M 237.6603,550.7074 A 11.97007,11.97007 0 0 1 213.77003,551.79892 L 225.69023,550.7074 z"
       transform="matrix(0.9328592,-0.3602411,0.3602411,0.9328592,-245.6039,-22.651916)"
       sodipodi:start="0"
       sodipodi:end="3.0502782" />
    <path
       sodipodi:type="arc"
       style="fill:#8200ac;fill-opacity:1;stroke:#6b008f;stroke-width:0.59098977;stroke-linecap:round;stroke-linejoin:round;stroke-miterlimit:4;stroke-dasharray:none;stroke-opacity:1;display:inline"
       id="path3170"
       sodipodi:cx="389.25"
       sodipodi:cy="432.34448"
       sodipodi:rx="7.25"
       sodipodi:ry="7"
       d="M 396.5,432.34448 A 7.25,7 0 0 1 382.20116,433.98199 L 389.25,432.34448 z"
       sodipodi:start="0"
       sodipodi:end="2.9054757"
       transform="matrix(0.4438636,0.2689844,-0.7147629,1.1794632,561.82717,-192.92205)" />
    <path
       transform="matrix(0.544776,0.2198867,-0.5378278,1.5726911,454.6345,-337.92232)"
       sodipodi:end="2.9054757"
       sodipodi:start="0"
       d="M 396.5,432.34448 A 7.25,7 0 0 1 382.20116,433.98199 L 389.25,432.34448 z"
       sodipodi:ry="7"
       sodipodi:rx="7.25"
       sodipodi:cy="432.34448"
       sodipodi:cx="389.25"
       id="path3172"
       style="fill:#8200ac;fill-opacity:1;stroke:#6b008f;stroke-width:0.50636303;stroke-linecap:round;stroke-linejoin:round;stroke-miterlimit:4;stroke-dasharray:none;stroke-opacity:1;display:inline"
       sodipodi:type="arc" />
    <path
       sodipodi:type="arc"
       style="fill:#8200ac;fill-opacity:1;stroke:#6b008f;stroke-width:0.50636303;stroke-linecap:round;stroke-linejoin:round;stroke-miterlimit:4;stroke-dasharray:none;stroke-opacity:1;display:inline"
       id="path3174"
       sodipodi:cx="389.25"
       sodipodi:cy="432.34448"
       sodipodi:rx="7.25"
       sodipodi:ry="7"
       d="M 396.5,432.34448 A 7.25,7 0 0 1 382.20116,433.98199 L 389.25,432.34448 z"
       sodipodi:start="0"
       sodipodi:end="2.9054757"
       transform="matrix(0.387835,7.6152797e-3,4.9482135e-2,1.3753429,271.0647,-169.14145)" />
    <path
       transform="matrix(0.320233,-8.612382e-2,0.3678193,0.9053388,165.75164,64.206473)"
       sodipodi:end="2.9054757"
       sodipodi:start="0"
       d="M 396.5,432.34448 A 7.25,7 0 0 1 382.20116,433.98199 L 389.25,432.34448 z"
       sodipodi:ry="7"
       sodipodi:rx="7.25"
       sodipodi:cy="432.34448"
       sodipodi:cx="389.25"
       id="path3176"
       style="fill:#8200ac;fill-opacity:1;stroke:#6b008f;stroke-width:0.50636303;stroke-linecap:round;stroke-linejoin:round;stroke-miterlimit:4;stroke-dasharray:none;stroke-opacity:1;display:inline"
       sodipodi:type="arc" />
    <path
       sodipodi:type="arc"
       style="fill:#8200ac;fill-opacity:1;stroke:#6b008f;stroke-width:0.50636303;stroke-linecap:round;stroke-linejoin:round;stroke-miterlimit:4;stroke-dasharray:none;stroke-opacity:1;display:inline"
       id="path3178"
       sodipodi:cx="389.25"
       sodipodi:cy="432.34448"
       sodipodi:rx="7.25"
       sodipodi:ry="7"
       d="M 396.5,432.34448 A 7.25,7 0 0 1 382.20116,433.98199 L 389.25,432.34448 z"
       sodipodi:start="0"
       sodipodi:end="2.9054757"
       transform="matrix(0.4453652,0.1797617,-0.4396849,1.2857062,152.47482,-375.66423)" />
    <path
       transform="matrix(0.1346214,0.3603496,-0.3945694,0.987702,244.54504,-319.9966)"
       sodipodi:end="2.9054757"
       sodipodi:start="0"
       d="M 396.5,432.34448 A 7.25,7 0 0 1 382.20116,433.98199 L 389.25,432.34448 z"
       sodipodi:ry="7"
       sodipodi:rx="7.25"
       sodipodi:cy="432.34448"
       sodipodi:cx="389.25"
       id="path3204"
       style="fill:#8200ac;fill-opacity:1;stroke:#6b008f;stroke-width:0.50636303;stroke-linecap:round;stroke-linejoin:round;stroke-miterlimit:4;stroke-dasharray:none;stroke-opacity:1;display:inline"
       sodipodi:type="arc" />
    <path
       sodipodi:type="arc"
       style="fill:#8200ac;fill-opacity:1;stroke:#6b008f;stroke-width:0.50636303;stroke-linecap:round;stroke-linejoin:round;stroke-miterlimit:4;stroke-dasharray:none;stroke-opacity:1;display:inline"
       id="path3206"
       sodipodi:cx="389.25"
       sodipodi:cy="432.34448"
       sodipodi:rx="7.25"
       sodipodi:ry="7"
       d="M 396.5,432.34448 A 7.25,7 0 0 1 382.20116,433.98199 L 389.25,432.34448 z"
       sodipodi:start="0"
       sodipodi:end="2.9054757"
       transform="matrix(-4.0290531e-3,0.3894781,-0.2948455,0.7780576,251.99133,-247.54865)" />
    <path
       style="fill:none;fill-rule:evenodd;stroke:#000000;stroke-width:1px;stroke-linecap:butt;stroke-linejoin:miter;stroke-opacity:1"
       d="M 82.554717,372.15631 C 82.554717,372.15631 76.544309,374.79913 72.655222,374.01247 C 68.137942,373.09875 65.914736,370.46697 65.914736,370.46697"
       id="path3182"
       sodipodi:nodetypes="csz" />
    <path
       sodipodi:nodetypes="csz"
       id="path3184"
       d="M 86.267027,369.50467 C 86.267027,369.50467 77.428192,374.26881 73.715882,371.53761 C 70.003571,368.80641 69.627046,367.10822 69.627046,367.10822"
       style="fill:none;fill-rule:evenodd;stroke:#000000;stroke-width:1px;stroke-linecap:butt;stroke-linejoin:miter;stroke-opacity:1" />
    <path
       style="fill:none;fill-rule:evenodd;stroke:#000000;stroke-width:1px;stroke-linecap:butt;stroke-linejoin:miter;stroke-opacity:1"
       d="M 90.686445,367.56012 C 90.686445,367.56012 80.963726,370.91005 77.251416,368.17885 C 73.539105,365.44765 74.046464,362.15847 74.046464,362.15847"
       id="path3186"
       sodipodi:nodetypes="csz" />
    <path
       sodipodi:nodetypes="csz"
       id="path3188"
       d="M 94.221979,366.32269 C 94.221979,366.32269 84.710102,370.06581 81.494057,366.76464 C 78.488853,363.67989 78.112329,358.97649 78.112329,358.97649"
       style="fill:none;fill-rule:evenodd;stroke:#000000;stroke-width:1px;stroke-linecap:butt;stroke-linejoin:miter;stroke-opacity:1" />
    <path
       style="fill:none;fill-rule:evenodd;stroke:#000000;stroke-width:1px;stroke-linecap:butt;stroke-linejoin:miter;stroke-opacity:1"
       d="M 100.57552,364.67624 C 100.57552,364.67624 90.012244,367.87376 86.610172,364.76464 C 83.428191,361.85666 82.698113,354.67839 82.698113,354.67839"
       id="path3190"
       sodipodi:nodetypes="csz" />
    <path
       sodipodi:nodetypes="csz"
       id="path3198"
       d="M 103.92387,364.67624 C 103.92387,364.67624 96.189021,365.39889 92.786949,362.28977 C 89.604968,359.38179 88.344559,350.61253 88.344559,350.61253"
       style="fill:none;fill-rule:evenodd;stroke:#000000;stroke-width:1px;stroke-linecap:butt;stroke-linejoin:miter;stroke-opacity:1" />
    <path
       style="fill:none;fill-rule:evenodd;stroke:#000000;stroke-width:1px;stroke-linecap:butt;stroke-linejoin:miter;stroke-opacity:1"
       d="M 105.38313,364.49946 C 105.38313,364.49946 100.29993,363.8079 97.604969,360.522 C 94.87138,357.18901 94.576792,347.60733 94.576792,347.60733"
       id="path3200"
       sodipodi:nodetypes="csz" />
    <path
       sodipodi:nodetypes="csz"
       id="path3202"
       d="M 107.26181,365.02979 C 107.26181,365.02979 103.59282,362.74724 102.66563,359.8149 C 101.36606,355.70485 102.99621,346.19311 102.99621,346.19311"
       style="fill:none;fill-rule:evenodd;stroke:#000000;stroke-width:1px;stroke-linecap:butt;stroke-linejoin:miter;stroke-opacity:1" />
    <path
       sodipodi:nodetypes="csz"
       id="path3208"
       d="M 181.97318,396.32347 C 181.97318,396.32347 188.11675,394.00698 190.34529,390.72409 C 192.93381,386.91092 192.68118,383.47506 192.68118,383.47506"
       style="fill:none;fill-rule:evenodd;stroke:#000000;stroke-width:1px;stroke-linecap:butt;stroke-linejoin:miter;stroke-opacity:1" />
    <path
       style="fill:none;fill-rule:evenodd;stroke:#000000;stroke-width:1px;stroke-linecap:butt;stroke-linejoin:miter;stroke-opacity:1"
       d="M 179.15831,399.367 C 179.15831,399.367 186.65252,394.95882 186.86275,390.35485 C 187.07299,385.75088 185.98918,384.39038 185.98918,384.39038"
       id="path3210"
       sodipodi:nodetypes="csz" />
    <path
       sodipodi:nodetypes="csz"
       id="path3212"
       d="M 177.3667,400.31927 C 177.3667,400.31927 181.88457,397.14835 182.6264,392.59968 C 183.36823,388.05101 181.23493,385.17184 181.23493,385.17184"
       style="fill:none;fill-rule:evenodd;stroke:#000000;stroke-width:1px;stroke-linecap:butt;stroke-linejoin:miter;stroke-opacity:1" />
    <path
       style="fill:none;fill-rule:evenodd;stroke:#000000;stroke-width:1px;stroke-linecap:butt;stroke-linejoin:miter;stroke-opacity:1"
       d="M 172.03018,404.02986 C 172.03018,404.02986 178.79379,399.16608 178.78227,394.55733 C 178.77151,390.25073 176.63395,385.91945 176.63395,385.91945"
       id="path3214"
       sodipodi:nodetypes="csz" />
    <path
       sodipodi:nodetypes="csz"
       id="path3216"
       d="M 167.39916,406.94479 C 167.39916,406.94479 173.69441,401.98879 174.25776,397.41459 C 175.02731,391.16608 170.35029,385.87974 170.35029,385.87974"
       style="fill:none;fill-rule:evenodd;stroke:#000000;stroke-width:1px;stroke-linecap:butt;stroke-linejoin:miter;stroke-opacity:1" />
    <path
       style="fill:none;fill-rule:evenodd;stroke:#000000;stroke-width:1px;stroke-linecap:butt;stroke-linejoin:miter;stroke-opacity:1"
       d="M 162.53177,408.93374 C 162.53177,408.93374 168.90913,402.97766 169.17348,398.37649 C 169.42041,394.07869 167.74388,389.74185 164.5319,386.57123"
       id="path3218"
       sodipodi:nodetypes="csz" />
    <path
       sodipodi:nodetypes="csz"
       id="path3220"
       d="M 158.36021,410.88898 C 158.36021,410.88898 163.61732,405.76586 163.07989,399.60015 C 162.64321,394.59028 156.20853,388.25365 156.20853,388.25365"
       style="fill:none;fill-rule:evenodd;stroke:#000000;stroke-width:1px;stroke-linecap:butt;stroke-linejoin:miter;stroke-opacity:1" />
    <path
       style="fill:none;fill-rule:evenodd;stroke:#000000;stroke-width:1px;stroke-linecap:butt;stroke-linejoin:miter;stroke-opacity:1"
       d="M 150.49455,412.58224 C 150.49455,412.58224 158.06003,407.85413 157.20141,401.75145 C 156.60085,397.48288 151.50128,392.60302 151.50128,392.60302"
       id="path3222"
       sodipodi:nodetypes="csz" />
  </g>
</svg>
